<svg xmlns="http://www.w3.org/2000/svg" fill="none" class="h-6 w-6 sm:w-12 sm:h-12 text-gray-200 animate-spin fill-blue-600" viewBox="0 0 93 93"><path fill="#e5e7eb" fill-rule="evenodd" d="M46.5 93C72.181 93 93 72.181 93 46.5S72.181 0 46.5 0 0 20.819 0 46.5 20.819 93 46.5 93Zm0-16C63.345 77 77 63.345 77 46.5S63.345 16 46.5 16 16 29.655 16 46.5 29.655 77 46.5 77Z" clip-rule="evenodd"/><path fill="#2463eb" d="M84.975 49.567c4.35.346 8.23-2.92 7.835-7.266A46.498 46.498 0 0 0 39.527.526c-4.315.654-6.561 5.2-5.186 9.343 1.375 4.142 5.87 6.273 10.227 5.999a30.692 30.692 0 0 1 32.14 25.199c.773 4.296 3.915 8.153 8.267 8.5Z"/></svg>