<svg xmlns="http://www.w3.org/2000/svg" width="512" height="512" viewBox="0 0 256 256"><path fill="#f79219" d="M222.58 114.782c0-8.69-3.979-16.901-10.8-22.286l-69.526-54.889a23.003 23.003 0 0 0-28.508 0L44.22 92.496a28.396 28.396 0 0 0-10.8 22.286v12.732h189.16v-12.732z"/><path fill="#ffa91a" d="M213.336 223.341H42.664a9.244 9.244 0 0 1-9.244-9.244V113.116a9.244 9.244 0 0 1 9.244-9.244h170.672a9.244 9.244 0 0 1 9.244 9.244v100.981a9.244 9.244 0 0 1-9.244 9.244z"/><path fill="#f79219" d="M213.336 103.872h-.756v100.225a9.244 9.244 0 0 1-9.244 9.244H33.42v.756a9.244 9.244 0 0 0 9.244 9.244h170.672a9.244 9.244 0 0 0 9.244-9.244V113.116a9.244 9.244 0 0 0-9.244-9.244z"/><path fill="#ef7816" d="M213.336 103.872H42.664c-4.488 0-8.229 3.199-9.067 7.441l79.417 62.697a24.186 24.186 0 0 0 29.973 0l79.417-62.698c-.84-4.241-4.58-7.44-9.068-7.44z"/><path fill="#f1f2f2" d="M203.33 73.49v52.88l-60.34 47.64a24.19 24.19 0 0 1-29.98 0l-60.34-47.64V73.49a8 8 0 0 1 8-8h134.66a8 8 0 0 1 8 8z"/><path fill="#fff" d="M58.67 125.46c-1.101 0-2-.9-2-2V73.49c0-2.2 1.8-4 4-4h106.89c1.101 0 1.99.9 1.99 2s-.89 2-1.99 2H60.67v49.97c0 1.1-.9 2-2 2zm116.88-51.97c-1.1 0-2-.9-2-2s.9-2 2-2a2 2 0 1 1 0 4z"/><path fill="#e6e7e8" d="M195.33 65.49h-2v50.88l-60.34 47.64a24.19 24.19 0 0 1-29.98 0l-50.34-39.745v2.105l60.34 47.64a24.19 24.19 0 0 0 29.98 0l60.34-47.64V73.49a8 8 0 0 0-8-8z"/><path fill="#d1d3d4" d="M197.9 65.92c.274.808.43 1.67.43 2.57v52.88l-60.34 47.64a24.19 24.19 0 0 1-29.98 0l-55.34-43.692v1.052l60.34 47.64a24.19 24.19 0 0 0 29.98 0l60.34-47.64V73.49c0-3.518-2.274-6.499-5.43-7.57z"/><path fill="#d1d3d4" d="M109.036 99.997H80.422a2.591 2.591 0 1 1 0-5.182h28.614a2.592 2.592 0 0 1 0 5.182zm66.542 24.033H80.422a2.591 2.591 0 1 1 0-5.182h95.156a2.591 2.591 0 1 1 0 5.182zm0 14.851H80.422a2.591 2.591 0 1 1 0-5.182h95.156a2.591 2.591 0 1 1 0 5.182zm-19.153 24.522h-56.85l6.564 5.182h43.722zm18.811-14.852H80.764l6.564 5.182h81.344z"/></svg>