<svg xmlns="http://www.w3.org/2000/svg" width="866" height="196" fill="none"><path stroke="#90F" stroke-dasharray="1 8" stroke-linecap="round" stroke-miterlimit="10" stroke-width="4" d="M294 110s-57.986 17.171-120 14m130-22.723s-69.351-26.49-124-20"/><path stroke="#90F" stroke-linecap="round" stroke-miterlimit="10" stroke-width="4" d="M367.667 104s-40 57-20 90M397 2s10.755 59.501-34 94"/><path fill="#FF0" d="M11 59h176v40H11V59Z"/><path fill="#000" d="M12.955 63h-2.768l-.03-.344-.032-2.406 1.062-1.969L15 58.164v2.688l-2.031.023L12.955 63Z"/><path fill="#000" d="M14.75 60.853v-2.689L43.966 58H98.32l84.929.768v1.979l-20.215.097-9.512-.375-13.925.312h-37.201L77.769 60.5l-28.879.281-34.14.072Z"/><path fill="#000" d="M187.512 63h-2.289l.027-1.5-1.156-.781-1.094.028v-1.979l.281.014 3.531.218.7 4Z"/><path fill="#000" d="m188 72.48-.5 13.256.428 9.514h-2.619l-.09-5.934-.062-8.392.125-5.398-.126-6.468.067-6.308h2.289l.082.802.406 8.928Z"/><path fill="#000" d="m187.928 95 .072.938-.875 3.687-1.344.175-2.781-.329v-2.252h2.156l.156-2.094-.003-.125h2.619Z"/><path fill="#000" d="M14.75 98.97v-2.134l9.85.148 21.91.078 15.284.062 26.498.219 13.589-.031 16.817-.094h64.552v2.252l-1.527-.033-41.104-.031-23.334.457-65.166-.238-34.988-.641-2.381-.014Z"/><path fill="#000" d="m12.797 96.656 2.203.18v2.134l-4.75-.158-.031-1.531-.21-2.281h2.554v.583l.234 1.073Z"/><path fill="#000" d="m12.955 62.75-.08 21.595-.312 8.553v2.352h-2.554L10 95.09v-5.238l.594-8.98.031-9.57-.438-8.552h2.768ZM80.91 75.145c-.02 1.27-.02 2.465 0 3.585a44.115 44.115 0 0 0 4.365-4.275c.2-.21.44-.32.72-.33.29-.01.54.085.75.285.22.2.335.445.345.735.01.28-.085.53-.285.75a38.153 38.153 0 0 1-3 3.075l3.45 4.44c.18.22.25.475.21.765a.99.99 0 0 1-.39.705.953.953 0 0 1-.765.21.99.99 0 0 1-.705-.39l-3.375-4.335-1.26 1.035c.03.81.065 1.685.105 2.625.01.28-.085.53-.285.75-.19.21-.43.32-.72.33a1 1 0 0 1-.75-.255c-.21-.2-.325-.445-.345-.735-.15-3.08-.205-6.08-.165-9 .01-.29.115-.535.315-.735.21-.2.46-.295.75-.285.29 0 .535.105.735.315.2.2.3.445.3.735Zm10.599 3.9c-.17.05-.26.075-.27.075l-.15.06c-.28.23-.495.55-.645.96-.14.41-.18.835-.12 1.275.04.42.165.76.375 1.02.22.26.505.425.855.495.42.08.74.08.96 0 .19-.07.38-.26.57-.57.19-.32.31-.72.36-1.2.06-.49.03-.895-.09-1.215-.11-.32-.25-.515-.42-.585-.13-.06-.25-.1-.36-.12a3.001 3.001 0 0 0-.465-.075c-.2-.03-.4-.07-.6-.12Zm.435-1.98c.94.15 1.57.295 1.89.435.37.18.68.425.93.735.26.31.44.64.54.99.11.35.19.72.24 1.11.05.38.045.725-.015 1.035-.05.48-.16.94-.33 1.38-.17.44-.43.86-.78 1.26-.34.4-.745.68-1.215.84-.57.2-1.25.22-2.04.06-.87-.17-1.55-.56-2.04-1.17a4.113 4.113 0 0 1-.885-2.1 4.85 4.85 0 0 1 .24-2.19c.26-.73.68-1.34 1.26-1.83.24-.18.535-.325.885-.435.01 0 .115-.03.315-.09a.93.93 0 0 0 .18-.06.99.99 0 0 1 .825.03Zm6.11-.315v-.495c.01-.19.016-.31.016-.36.01-.29.12-.53.33-.72.21-.2.46-.295.75-.285.29 0 .53.105.72.315.2.21.3.46.3.75 0 .04-.005.15-.015.33 0 .17-.005.32-.015.45.42.02.72.13.9.33.19.2.285.44.285.72 0 .27-.1.505-.3.705-.19.2-.5.31-.93.33 0 .31-.005.605-.015.885-.01.93.005 1.85.045 2.76h.015-.015c.01.02.03.045.06.075.04.02.095.05.165.09l.12.06.135.075c.05.02.09.04.12.06.19.09.345.18.465.27.24.16.39.38.45.66s.01.54-.15.78-.38.39-.66.45-.54.01-.78-.15a6.22 6.22 0 0 0-.285-.15l-.42-.225c-.44-.24-.775-.51-1.005-.81a1.21 1.21 0 0 1-.225-.54c-.02-.1-.04-.22-.06-.36-.02-.19-.035-.47-.045-.84-.02-.57-.025-1.31-.015-2.22 0-.3.005-.615.015-.945-.48-.07-.79-.195-.93-.375-.13-.19-.195-.4-.195-.63 0-.23.07-.435.21-.615.15-.19.47-.315.96-.375Zm7.274-1.44v2.91c.01 1.14.015 2.175.015 3.105 0 .93-.005 1.82-.015 2.67-.01.29-.12.535-.33.735a.95.95 0 0 1-.735.285 1 1 0 0 1-.735-.3c-.2-.21-.3-.46-.3-.75.02 0 .025-1.405.015-4.215l-.015-4.44a1 1 0 0 1 .3-.735c.21-.21.46-.315.75-.315s.535.105.735.315c.21.2.315.445.315.735Zm3.708 2.805c-.06 1.87-.075 3.815-.045 5.835 0 .29-.1.54-.3.75a1 1 0 0 1-.735.3.997.997 0 0 1-.75-.285c-.2-.2-.305-.445-.315-.735-.03-2.12-.015-4.105.045-5.955.01-.29.12-.53.33-.72.22-.2.475-.295.765-.285.29.01.53.125.72.345.2.21.295.46.285.75Zm-.39-3.6c.21.2.315.445.315.735s-.105.54-.315.75a1 1 0 0 1-.735.3c-.29 0-.54-.1-.75-.3-.2-.21-.3-.46-.3-.75a1 1 0 0 1 .3-.735c.21-.21.46-.315.75-.315s.535.105.735.315Zm4.216 5.025c-.01.03-.025.085-.045.165 0 .03-.005.06-.015.09v.12a.283.283 0 0 0-.015.09v.045c0 .31.005.92.015 1.83.01.91.015 1.6.015 2.07 0 .29-.105.54-.315.75a1 1 0 0 1-.735.3c-.29 0-.54-.1-.75-.3-.2-.21-.3-.46-.3-.75 0-.42-.01-1.28-.03-2.58-.01-1.3-.05-2.37-.12-3.21-.01-.3.045-.52.165-.66.12-.15.33-.24.63-.27.52 0 .835.095.945.285.59-.37 1.26-.52 2.01-.45.62.06 1.185.265 1.695.615s.865.835 1.065 1.455c.11.34.185.77.225 1.29.05.52.07.96.06 1.32 0 .35-.015.82-.045 1.41l-.03.9a.97.97 0 0 1-.315.69c-.2.19-.435.28-.705.27a.97.97 0 0 1-.69-.315.937.937 0 0 1-.27-.705c0-.11.01-.44.03-.99.03-.55.045-.975.045-1.275.01-.3 0-.645-.03-1.035-.03-.4-.085-.72-.165-.96a.862.862 0 0 0-.36-.465 1.292 1.292 0 0 0-.675-.225c-.28-.03-.54.005-.78.105-.23.09-.4.22-.51.39Z"/><path fill="#D8D8D8" d="M11 107h176v40H11v-40Z"/><path fill="#000" d="M12.955 111h-2.768l-.03-.344-.032-2.406 1.062-1.969 3.813-.117v2.688l-2.031.023-.014 2.125Z"/><path fill="#000" d="M14.75 108.853v-2.689L43.966 106H98.32l84.929.768v1.979l-20.215.097-9.512-.375-13.925.312h-37.201l-24.628-.281-28.879.281-34.14.072Z"/><path fill="#000" d="M187.512 111h-2.289l.027-1.5-1.156-.781-1.094.028v-1.979l.281.014 3.531.218.7 4Z"/><path fill="#000" d="m188 120.479-.5 13.257.428 9.514h-2.619l-.09-5.934-.062-8.392.125-5.398-.126-6.468.067-6.308h2.289l.082.802.406 8.927Z"/><path fill="#000" d="m187.928 143 .072.938-.875 3.687-1.344.175-2.781-.329v-2.252h2.156l.156-2.094-.003-.125h2.619Z"/><path fill="#000" d="M14.75 146.97v-2.134l9.85.148 21.91.078 15.284.062 26.498.219 13.589-.031 16.817-.094h64.552v2.252l-1.527-.033-41.104-.031-23.334.457-65.166-.238-34.988-.641-2.381-.014Z"/><path fill="#000" d="m12.797 144.656 2.203.18v2.134l-4.75-.158-.031-1.531-.21-2.281h2.554v.583l.234 1.073Z"/><path fill="#000" d="m12.955 110.75-.08 21.595-.312 8.553v2.352h-2.554l-.009-.161v-5.237l.594-8.981.031-9.568-.438-8.553h2.768Zm74.26 11.51c1.54-.05 2.795-.05 3.765 0 .29.02.53.14.72.36.19.21.275.46.255.75a.957.957 0 0 1-.345.72c-.21.19-.46.28-.75.27-.24-.02-.48-.03-.72-.03.06.88.1 1.58.12 2.1.02.51 0 1.12-.06 1.83-.06.82-.18 1.545-.36 2.175-.15.53-.42 1.01-.81 1.44-.38.43-.82.74-1.32.93-.39.14-.775.21-1.155.21-.37 0-.745-.105-1.125-.315-.38-.22-.71-.53-.99-.93-.17-.25-.305-.57-.405-.96 0-.01-.03-.13-.09-.36a1.96 1.96 0 0 0-.06-.255.997.997 0 0 1 .06-.795c.13-.26.33-.435.6-.525.28-.09.545-.07.795.06.26.13.435.33.525.6a5.765 5.765 0 0 1 .15.555l.045.195c.04.16.08.265.12.315.2.3.45.39.75.27a1.565 1.565 0 0 0 .9-1.005c.12-.42.21-.845.27-1.275.06-.43.085-.91.075-1.44-.01-.54-.025-.955-.045-1.245-.01-.3-.04-.825-.09-1.575-.21.01-.46.02-.75.03-.28.01-.53-.085-.75-.285-.21-.2-.32-.44-.33-.72a.997.997 0 0 1 .285-.75.99.99 0 0 1 .72-.345Zm9.503 7.35c-.03-.8-.07-1.49-.12-2.07l-.15-.105-.21-.165-.135-.09c-.41-.12-.825-.045-1.245.225-.41.27-.735.705-.975 1.305-.23.58-.295 1.05-.195 1.41.1.35.325.585.675.705.44.16.89.07 1.35-.27.08-.05.15-.105.21-.165l.24-.27.345-.36a.8.8 0 0 1 .21-.15Zm1.86-3.21a29.601 29.601 0 0 1 .18 2.235l.045 1.05.045 1.17c.02.53.035.875.045 1.035.01.29-.085.545-.285.765-.2.21-.44.32-.72.33-.23.01-.44-.045-.63-.165-.18-.13-.31-.3-.39-.51-1.04.72-2.105.885-3.195.495-.57-.2-1.03-.495-1.38-.885-.34-.4-.555-.835-.645-1.305a5.226 5.226 0 0 1-.045-1.425c.05-.49.165-.945.345-1.365.19-.42.43-.815.72-1.185.29-.37.64-.7 1.05-.99.42-.29.875-.475 1.365-.555.49-.09 1.02-.065 1.59.075.23.06.455.165.675.315h.075c.29-.04.545.03.765.21.23.18.36.415.39.705Zm7.861.195-.315.675-1.065 2.22-.24.525-.255.6c-.12.28-.2.47-.24.57-.03.09-.11.3-.24.63l-.24.585c-.11.25-.29.43-.54.54-.24.1-.49.1-.75 0a.999.999 0 0 1-.585-.72.167.167 0 0 0-.015-.075c-.64-2.11-1.355-3.98-2.145-5.61a.984.984 0 0 1 .39-1.35c.24-.14.49-.17.75-.09.26.07.455.23.585.48a41.14 41.14 0 0 1 1.515 3.57 46.064 46.064 0 0 1 1.725-3.615c.14-.23.34-.375.6-.435.27-.06.52-.015.75.135.23.14.375.34.435.6.07.26.03.515-.12.765Zm5.47 3.015c-.03-.8-.07-1.49-.12-2.07l-.15-.105-.21-.165-.135-.09c-.41-.12-.825-.045-1.245.225-.41.27-.735.705-.975 1.305-.23.58-.295 1.05-.195 1.41.1.35.325.585.675.705.44.16.89.07 1.35-.27.08-.05.15-.105.21-.165l.24-.27.345-.36a.8.8 0 0 1 .21-.15Zm1.86-3.21a29.601 29.601 0 0 1 .18 2.235l.045 1.05.045 1.17c.02.53.035.875.045 1.035.01.29-.085.545-.285.765-.2.21-.44.32-.72.33-.23.01-.44-.045-.63-.165-.18-.13-.31-.3-.39-.51-1.04.72-2.105.885-3.195.495-.57-.2-1.03-.495-1.38-.885-.34-.4-.555-.835-.645-1.305a5.226 5.226 0 0 1-.045-1.425c.05-.49.165-.945.345-1.365.19-.42.43-.815.72-1.185.29-.37.64-.7 1.05-.99.42-.29.875-.475 1.365-.555.49-.09 1.02-.065 1.59.075.23.06.455.165.675.315h.075c.29-.04.545.03.765.21.23.18.36.415.39.705Z"/><path fill="#fff" d="M21.071 57.126c0-5.678-4.607-10.285-10.285-10.285C5.107 46.84.5 51.447.5 57.126s4.607 10.286 10.286 10.286c5.678 0 10.285-4.607 10.285-10.286Z"/><path fill="#90F" d="M17.696 54.957a.84.84 0 0 1-.24.602l-7.273 7.273a.883.883 0 0 1-.616.254.876.876 0 0 1-.603-.254l-4.848-4.849a.84.84 0 0 1-.241-.602.87.87 0 0 1 .241-.616l1.219-1.206a.852.852 0 0 1 .603-.254.85.85 0 0 1 .602.254l3.027 3.027 5.464-5.45a.852.852 0 0 1 .603-.255c.228 0 .442.093.603.254l1.218 1.206a.87.87 0 0 1 .241.616Zm3.375 2.17c0-5.68-4.607-10.287-10.285-10.287C5.107 46.84.5 51.448.5 57.127c0 5.679 4.607 10.286 10.286 10.286 5.678 0 10.285-4.607 10.285-10.286Z"/><path fill="#FFE599" d="M283 83h176v44H283V83Z"/><path fill="#000" d="M284.955 87h-2.768l-.03-.344-.032-2.406 1.062-1.969 3.813-.117v2.688l-2.031.023-.014 2.125Z"/><path fill="#000" d="M286.75 84.853v-2.689L315.966 82h54.355l84.929.768v1.979l-20.215.097-9.512-.375-13.925.312h-37.201l-24.628-.281-28.879.281-34.14.072Z"/><path fill="#000" d="M459.512 87h-2.289l.027-1.5-1.156-.781-1.094.028v-1.979l.281.014 3.531.218.7 4Z"/><path fill="#000" d="m460 97.677-.5 14.888.428 10.685h-2.619l-.09-6.664-.062-9.425.125-6.063-.126-7.263.067-7.085h2.289l.082.901.406 10.026Z"/><path fill="#000" d="m459.928 123 .072.938-.875 3.687-1.344.175-2.781-.329v-2.252h2.156l.156-2.094-.003-.125h2.619Z"/><path fill="#000" d="M286.75 126.97v-2.134l9.849.148 21.911.078 15.284.062 26.498.219 13.589-.031 16.817-.094h64.552v2.252l-1.527-.033-41.104-.031-23.334.457-65.166-.238-34.988-.641-2.381-.014Z"/><path fill="#000" d="m284.797 124.656 2.203.18v2.134l-4.75-.158-.031-1.531-.21-2.281h2.554v.583l.234 1.073Z"/><path fill="#000" d="m284.955 86.75-.08 24.253-.312 9.606v2.641h-2.554l-.009-.181v-5.882l.594-10.085.031-10.747-.438-9.605h2.768Zm30.91 17.746h.015l.705.075c.26.02.485.035.675.045.19.01.375.01.555 0 .37-.01.72-.08 1.05-.21.33-.14.575-.305.735-.495a.94.94 0 0 0 .165-.24c.03-.08.02-.225-.03-.435-.04-.21-.14-.415-.3-.615-.32-.39-.855-.605-1.605-.645-.5-.03-1.15.015-1.95.135-.01.67-.015 1.465-.015 2.385Zm-.765-4.38c1.22-.2 2.175-.28 2.865-.24 1.36.09 2.39.565 3.09 1.425.54.66.815 1.365.825 2.115.01.75-.225 1.38-.705 1.89-.39.43-.88.765-1.47 1.005a5.46 5.46 0 0 1-1.8.405c-.2.01-.415.01-.645 0a18.286 18.286 0 0 1-1.38-.12c.02 1.51.03 2.6.03 3.27 0 .29-.105.54-.315.75a1 1 0 0 1-.735.3c-.29 0-.54-.1-.75-.3-.2-.21-.3-.46-.3-.75s-.01-1.745-.03-4.365c-.02-2.62-.015-4.075.015-4.365.01-.29.12-.53.33-.72a1.05 1.05 0 0 1 .9-.285c.02 0 .045-.005.075-.015Zm10.479 3.81c-.06 1.87-.075 3.815-.045 5.835 0 .29-.1.54-.3.75a1 1 0 0 1-.735.3.997.997 0 0 1-.75-.285c-.2-.2-.305-.445-.315-.735-.03-2.12-.015-4.105.045-5.955.01-.29.12-.53.33-.72.22-.2.475-.295.765-.285.29.01.53.125.72.345.2.21.295.46.285.75Zm-.39-3.6c.21.2.315.445.315.735s-.105.54-.315.75a1 1 0 0 1-.735.3c-.29 0-.54-.1-.75-.3-.2-.21-.3-.46-.3-.75a1 1 0 0 1 .3-.735c.21-.21.46-.315.75-.315s.535.105.735.315Zm9.046 8.055c-.03.06-.06.125-.09.195-.03.06-.06.13-.09.21-.03.08-.06.145-.09.195-.16.38-.35.68-.57.9-.34.35-.745.595-1.215.735-.46.16-.91.22-1.35.18-.44-.04-.865-.14-1.275-.3a4.118 4.118 0 0 1-1.635-1.2 3.366 3.366 0 0 1-.765-1.89c-.04-.59.055-1.19.285-1.8a4.64 4.64 0 0 1 1.005-1.59c.31-.32.655-.575 1.035-.765.39-.2.83-.325 1.32-.375.49-.05.985.035 1.485.255.27.11.555.29.855.54.02.02.085.08.195.18l.27.225c.23.18.36.41.39.69a.95.95 0 0 1-.21.75c-.18.22-.415.35-.705.39-.28.03-.535-.045-.765-.225-.02-.01-.21-.17-.57-.48-.12-.1-.21-.165-.27-.195-.54-.22-1.04-.085-1.5.405-.24.25-.43.545-.57.885-.13.34-.18.66-.15.96.02.28.13.545.33.795s.465.44.795.57c.35.13.645.18.885.15.25-.04.45-.135.6-.285.05-.05.11-.155.18-.315l.33-.72c.13-.25.33-.415.6-.495.28-.09.55-.07.81.06.26.12.43.315.51.585.09.27.07.53-.06.78Zm3.974-.405-.6.57a.235.235 0 0 0-.06.045v1.215c-.01.29-.12.535-.33.735a.95.95 0 0 1-.735.285 1 1 0 0 1-.735-.3c-.2-.21-.3-.46-.3-.75.03-1.8-.02-4.68-.15-8.64a1.024 1.024 0 0 1 1.005-1.08c.29-.02.54.07.75.27.21.19.325.43.345.72.06 1.75.105 3.31.135 4.68.78-.76 1.6-1.6 2.46-2.52.2-.21.44-.32.72-.33.29-.01.54.085.75.285.22.2.335.445.345.735.01.28-.085.53-.285.75l-1.785 1.83a15.7 15.7 0 0 0 2.07 2.595c.2.2.295.445.285.735 0 .29-.105.535-.315.735a.95.95 0 0 1-.735.285.976.976 0 0 1-.735-.315c-.83-.85-1.53-1.695-2.1-2.535Zm14.715-.555c-.03-.8-.07-1.49-.12-2.07l-.15-.105-.21-.165-.135-.09c-.41-.12-.825-.045-1.245.225-.41.27-.735.705-.975 1.305-.23.58-.295 1.05-.195 1.41.1.35.325.585.675.705.44.16.89.07 1.35-.27.08-.05.15-.105.21-.165l.24-.27.345-.36a.8.8 0 0 1 .21-.15Zm1.86-3.21a29.601 29.601 0 0 1 .18 2.235l.045 1.05.045 1.17c.02.53.035.875.045 1.035.01.29-.085.545-.285.765-.2.21-.44.32-.72.33-.23.01-.44-.045-.63-.165-.18-.13-.31-.3-.39-.51-1.04.72-2.105.885-3.195.495-.57-.2-1.03-.495-1.38-.885-.34-.4-.555-.835-.645-1.305a5.226 5.226 0 0 1-.045-1.425c.05-.49.165-.945.345-1.365.19-.42.43-.815.72-1.185.29-.37.64-.7 1.05-.99.42-.29.875-.475 1.365-.555.49-.09 1.02-.065 1.59.075.23.06.455.165.675.315h.075c.29-.04.545.03.765.21.23.18.36.415.39.705Zm6.744 6.21c-.2-.2-.305-.445-.315-.735-.01-1.02-.03-2.465-.06-4.335l-.045-4.215a1 1 0 0 1 .3-.735c.2-.21.445-.315.735-.315a.95.95 0 0 1 .735.285c.21.2.32.445.33.735l.045 3.93.045 3.72c.49 0 1.2-.005 2.13-.015.94-.01 1.63-.015 2.07-.015.29 0 .535.105.735.315.21.2.315.445.315.735s-.105.54-.315.75a1 1 0 0 1-.735.3c-.33 0-1.185.005-2.565.015-1.39.01-2.25.01-2.58 0-.34-.01-.615-.15-.825-.42Zm13.706-3c-.03-.8-.07-1.49-.12-2.07l-.15-.105-.21-.165-.135-.09c-.41-.12-.825-.045-1.245.225-.41.27-.735.705-.975 1.305-.23.58-.295 1.05-.195 1.41.1.35.325.585.675.705.44.16.89.07 1.35-.27.08-.05.15-.105.21-.165l.24-.27.345-.36a.8.8 0 0 1 .21-.15Zm1.86-3.21a29.601 29.601 0 0 1 .18 2.235l.045 1.05.045 1.17c.02.53.035.875.045 1.035.01.29-.085.545-.285.765-.2.21-.44.32-.72.33-.23.01-.44-.045-.63-.165-.18-.13-.31-.3-.39-.51-1.04.72-2.105.885-3.195.495-.57-.2-1.03-.495-1.38-.885-.34-.4-.555-.835-.645-1.305a5.226 5.226 0 0 1-.045-1.425c.05-.49.165-.945.345-1.365.19-.42.43-.815.72-1.185.29-.37.64-.7 1.05-.99.42-.29.875-.475 1.365-.555.49-.09 1.02-.065 1.59.075.23.06.455.165.675.315h.075c.29-.04.545.03.765.21.23.18.36.415.39.705Zm4.137 1.14c-.01.03-.025.085-.045.165 0 .03-.005.06-.015.09v.12a.283.283 0 0 0-.015.09v.045c0 .31.005.92.015 1.83.01.91.015 1.6.015 2.07 0 .29-.105.54-.315.75a1 1 0 0 1-.735.3c-.29 0-.54-.1-.75-.3-.2-.21-.3-.46-.3-.75 0-.42-.01-1.28-.03-2.58-.01-1.3-.05-2.37-.12-3.21-.01-.3.045-.52.165-.66.12-.15.33-.24.63-.27.52 0 .835.095.945.285.59-.37 1.26-.52 2.01-.45.62.06 1.185.265 1.695.615s.865.835 1.065 1.455c.11.34.185.77.225 1.29.05.52.07.96.06 1.32 0 .35-.015.82-.045 1.41l-.03.9a.97.97 0 0 1-.315.69c-.2.19-.435.28-.705.27a.97.97 0 0 1-.69-.315.937.937 0 0 1-.27-.705c0-.11.01-.44.03-.99.03-.55.045-.975.045-1.275.01-.3 0-.645-.03-1.035-.03-.4-.085-.72-.165-.96a.862.862 0 0 0-.36-.465 1.292 1.292 0 0 0-.675-.225c-.28-.03-.54.005-.78.105-.23.09-.4.22-.51.39Zm11.29-.015-.51-.225c-.39-.16-.635-.245-.735-.255-.67-.07-1.165.125-1.485.585-.33.46-.455 1.05-.375 1.77.08.68.305 1.165.675 1.455.35.27.815.25 1.395-.06a.98.98 0 0 0 .105-.06l.105-.075c.03-.02.06-.045.09-.075l.09-.09a.512.512 0 0 0 .105-.105l.105-.105c.02-.02.055-.06.105-.12.05-.07.085-.115.105-.135.02-.02.06-.065.12-.135.06-.08.1-.135.12-.165.01-.87.005-1.605-.015-2.205Zm1.92-1.515c.07 1.09.105 2.285.105 3.585 0 1.3-.005 2.095-.015 2.385 0 .29-.02.545-.06.765a5.296 5.296 0 0 1-1.335 2.445c-.27.27-.555.48-.855.63-.29.16-.63.255-1.02.285-.38.04-.82.005-1.32-.105-.55-.2-1.075-.54-1.575-1.02-.27-.2-.43-.465-.48-.795-.04-.33.05-.62.27-.87.23-.25.5-.345.81-.285.32.06.545.185.675.375.2.27.37.455.51.555.15.1.25.16.3.18.49.14.91.03 1.26-.33.36-.37.62-.805.78-1.305l-.075.03c-.66.35-1.29.51-1.89.48a2.81 2.81 0 0 1-1.635-.585 3.33 3.33 0 0 1-.99-1.23c-.24-.5-.39-1.025-.45-1.575-.14-1.22.1-2.27.72-3.15.36-.5.82-.875 1.38-1.125.56-.26 1.195-.355 1.905-.285.29.03.7.155 1.23.375.18-.22.415-.345.705-.375.27-.01.505.075.705.255.21.18.325.41.345.69Zm3.899.165-.105.78c-.05.36-.085.635-.105.825-.02.18-.045.455-.075.825-.02.37-.015.635.015.795.04.49.135.86.285 1.11.16.25.4.415.72.495a.71.71 0 0 0 .615-.105c.2-.14.505-.445.915-.915.06-.06.12-.11.18-.15.01-1.33.005-2.57-.015-3.72a1 1 0 0 1 .3-.735c.2-.21.445-.315.735-.315a.95.95 0 0 1 .735.285c.21.2.32.445.33.735.02 1.47.02 3.39 0 5.76 0 .28-.105.525-.315.735-.21.2-.46.3-.75.3a1 1 0 0 1-.84-.45c-.75.55-1.55.715-2.4.495-.44-.12-.82-.3-1.14-.54-.32-.24-.57-.52-.75-.84a4.697 4.697 0 0 1-.405-.975c-.09-.32-.15-.665-.18-1.035-.03-.2-.03-.525 0-.975.03-.46.055-.795.075-1.005.02-.22.055-.52.105-.9.05-.39.08-.63.09-.72.04-.27.165-.49.375-.66a.934.934 0 0 1 .735-.195c.27.03.49.155.66.375.17.21.24.45.21.72Zm11.245 3.435c-.03-.8-.07-1.49-.12-2.07l-.15-.105-.21-.165-.135-.09c-.41-.12-.825-.045-1.245.225-.41.27-.735.705-.975 1.305-.23.58-.295 1.05-.195 1.41.1.35.325.585.675.705.44.16.89.07 1.35-.27.08-.05.15-.105.21-.165l.24-.27.345-.36a.8.8 0 0 1 .21-.15Zm1.86-3.21a29.601 29.601 0 0 1 .18 2.235l.045 1.05.045 1.17c.02.53.035.875.045 1.035.01.29-.085.545-.285.765-.2.21-.44.32-.72.33-.23.01-.44-.045-.63-.165-.18-.13-.31-.3-.39-.51-1.04.72-2.105.885-3.195.495-.57-.2-1.03-.495-1.38-.885-.34-.4-.555-.835-.645-1.305a5.226 5.226 0 0 1-.045-1.425c.05-.49.165-.945.345-1.365.19-.42.43-.815.72-1.185.29-.37.64-.7 1.05-.99.42-.29.875-.475 1.365-.555.49-.09 1.02-.065 1.59.075.23.06.455.165.675.315h.075c.29-.04.545.03.765.21.23.18.36.415.39.705Zm6.403 1.125-.51-.225c-.39-.16-.635-.245-.735-.255-.67-.07-1.165.125-1.485.585-.33.46-.455 1.05-.375 1.77.08.68.305 1.165.675 1.455.35.27.815.25 1.395-.06a.98.98 0 0 0 .105-.06l.105-.075c.03-.02.06-.045.09-.075l.09-.09a.512.512 0 0 0 .105-.105l.105-.105c.02-.02.055-.06.105-.12.05-.07.085-.115.105-.135.02-.02.06-.065.12-.135.06-.08.1-.135.12-.165.01-.87.005-1.605-.015-2.205Zm1.92-1.515c.07 1.09.105 2.285.105 3.585 0 1.3-.005 2.095-.015 2.385 0 .29-.02.545-.06.765a5.296 5.296 0 0 1-1.335 2.445c-.27.27-.555.48-.855.63-.29.16-.63.255-1.02.285-.38.04-.82.005-1.32-.105-.55-.2-1.075-.54-1.575-1.02-.27-.2-.43-.465-.48-.795-.04-.33.05-.62.27-.87.23-.25.5-.345.81-.285.32.06.545.185.675.375.2.27.37.455.51.555.15.1.25.16.3.18.49.14.91.03 1.26-.33.36-.37.62-.805.78-1.305l-.075.03c-.66.35-1.29.51-1.89.48a2.81 2.81 0 0 1-1.635-.585 3.33 3.33 0 0 1-.99-1.23c-.24-.5-.39-1.025-.45-1.575-.14-1.22.1-2.27.72-3.15.36-.5.82-.875 1.38-1.125.56-.26 1.195-.355 1.905-.285.29.03.7.155 1.23.375.18-.22.415-.345.705-.375.27-.01.505.075.705.255.21.18.325.41.345.69Zm6.762 2.205c-.01-.16-.08-.36-.21-.6-.12-.25-.39-.48-.81-.69-.49-.23-1.025-.21-1.605.06-.55.26-.855.695-.915 1.305l1.095.03c.38.01.845.015 1.395.015.55-.01.9-.05 1.05-.12Zm1.5 3.315c-.04.15-.155.34-.345.57-.2.19-.405.35-.615.48-.21.13-.545.245-1.005.345-.7.09-1.315.1-1.845.03-.52-.08-.99-.245-1.41-.495a3.99 3.99 0 0 1-1.095-1.005c-.31-.43-.56-1.05-.75-1.86-.08-.47-.07-.905.03-1.305.44-2.12 1.7-3.2 3.78-3.24 1.91.01 3.105 1.045 3.585 3.105.11.43.075.78-.105 1.05-.22.34-.605.53-1.155.57-.26.03-.65.055-1.17.075-.51.01-1.485-.035-2.925-.135.1.92.68 1.455 1.74 1.605.62.04 1.05-.055 1.29-.285.38-.39.7-.59.96-.6.26-.02.475.035.645.165.18.12.305.265.375.435.07.16.075.325.015.495Z"/><path fill="#fff" d="M535 67h330v76H535V67Z"/><path fill="#000" d="M536.955 71h-2.768l-.03-.344-.032-2.406 1.062-1.969 3.813-.117v2.688l-2.031.023-.014 2.125Z"/><path fill="#000" d="M538.75 68.853v-2.689L594.667 66H698.7l162.55.768v1.979l-38.69.097-18.205-.375-26.653.312h-71.2l-47.137-.281-55.272.281-65.343.072Z"/><path fill="#000" d="M865.512 71h-2.289l.027-1.5-1.156-.781-1.094.028v-1.979l.281.014 3.531.218.7 4Z"/><path fill="#000" d="m866 91.257-.5 27.941.428 20.052h-2.619l-.09-12.507-.062-17.687.125-11.378-.126-13.632.067-13.296h2.289l.082 1.69.406 18.817Z"/><path fill="#000" d="m865.928 139 .072.938-.875 3.687-1.344.175-2.781-.329v-2.252h2.156l.156-2.094-.003-.125h2.619Z"/><path fill="#000" d="M538.75 142.97v-2.134l18.851.148 41.935.078 29.254.062 50.716.219 26.008-.031 32.187-.094H861.25v2.252l-2.923-.033-78.67-.031-44.661.457-124.724-.238-66.965-.641-4.557-.014Z"/><path fill="#000" d="m536.797 140.656 2.203.18v2.134l-4.75-.158-.031-1.531-.21-2.281h2.554v.583l.234 1.073Z"/><path fill="#000" d="m536.955 70.75-.08 45.516-.312 18.027v4.957h-2.554l-.009-.339v-11.039l.594-18.928.031-20.168-.438-18.026h2.768Zm19.955 15.206c-.02 1.27-.02 2.465 0 3.585a44.115 44.115 0 0 0 4.365-4.275c.2-.21.44-.32.72-.33.29-.01.54.085.75.285.22.2.335.445.345.735.01.28-.085.53-.285.75a38.153 38.153 0 0 1-3 3.075l3.45 4.44c.18.22.25.475.21.765a.99.99 0 0 1-.39.705.953.953 0 0 1-.765.21.99.99 0 0 1-.705-.39l-3.375-4.335-1.26 1.035c.03.81.065 1.685.105 2.625.01.28-.085.53-.285.75-.19.21-.43.32-.72.33a1 1 0 0 1-.75-.255c-.21-.2-.325-.445-.345-.735-.15-3.08-.205-6.08-.165-9 .01-.29.115-.535.315-.735.21-.2.46-.295.75-.285.29 0 .535.105.735.315.2.2.3.445.3.735Zm10.599 3.9c-.17.05-.26.075-.27.075l-.15.06c-.28.23-.495.55-.645.96-.14.41-.18.835-.12 1.275.04.42.165.76.375 1.02.22.26.505.425.855.495.42.08.74.08.96 0 .19-.07.38-.26.57-.57.19-.32.31-.72.36-1.2.06-.49.03-.895-.09-1.215-.11-.32-.25-.515-.42-.585-.13-.06-.25-.1-.36-.12a3.001 3.001 0 0 0-.465-.075c-.2-.03-.4-.07-.6-.12Zm.435-1.98c.94.15 1.57.295 1.89.435.37.18.68.425.93.735.26.31.44.64.54.99.11.35.19.72.24 1.11.05.38.045.725-.015 1.035-.05.48-.16.94-.33 1.38-.17.44-.43.86-.78 1.26-.34.4-.745.68-1.215.84-.57.2-1.25.22-2.04.06-.87-.17-1.55-.56-2.04-1.17a4.113 4.113 0 0 1-.885-2.1 4.85 4.85 0 0 1 .24-2.19c.26-.73.68-1.34 1.26-1.83.24-.18.535-.325.885-.435.01 0 .115-.03.315-.09a.93.93 0 0 0 .18-.06.99.99 0 0 1 .825.03Zm6.111-.315v-.495c.01-.19.015-.31.015-.36.01-.29.12-.53.33-.72.21-.2.46-.295.75-.285.29 0 .53.105.72.315.2.21.3.46.3.75 0 .04-.005.15-.015.33 0 .17-.005.32-.015.45.42.02.72.13.9.33.19.2.285.44.285.72 0 .27-.1.505-.3.705-.19.2-.5.31-.93.33 0 .31-.005.605-.015.885-.01.93.005 1.85.045 2.76h.015-.015c.01.02.03.045.06.075.04.02.095.05.165.09l.12.06.135.075c.05.02.09.04.12.06.19.09.345.18.465.27.24.16.39.38.45.66s.01.54-.15.78-.38.39-.66.45-.54.01-.78-.15c-.07-.04-.165-.09-.285-.15l-.42-.225c-.44-.24-.775-.51-1.005-.81a1.21 1.21 0 0 1-.225-.54c-.02-.1-.04-.22-.06-.36-.02-.19-.035-.47-.045-.84-.02-.57-.025-1.31-.015-2.22 0-.3.005-.615.015-.945-.48-.07-.79-.195-.93-.375-.13-.19-.195-.4-.195-.63 0-.23.07-.435.21-.615.15-.19.47-.315.96-.375Zm7.273-1.44v2.91c.01 1.14.015 2.175.015 3.105 0 .93-.005 1.82-.015 2.67-.01.29-.12.535-.33.735a.95.95 0 0 1-.735.285 1 1 0 0 1-.735-.3c-.2-.21-.3-.46-.3-.75.02 0 .025-1.405.015-4.215l-.015-4.44a1 1 0 0 1 .3-.735c.21-.21.46-.315.75-.315s.535.105.735.315c.21.2.315.445.315.735Zm3.708 2.805c-.06 1.87-.075 3.815-.045 5.835 0 .29-.1.54-.3.75a1 1 0 0 1-.735.3.997.997 0 0 1-.75-.285c-.2-.2-.305-.445-.315-.735-.03-2.12-.015-4.105.045-5.955.01-.29.12-.53.33-.72.22-.2.475-.295.765-.285.29.01.53.125.72.345.2.21.295.46.285.75Zm-.39-3.6c.21.2.315.445.315.735s-.105.54-.315.75a1 1 0 0 1-.735.3c-.29 0-.54-.1-.75-.3-.2-.21-.3-.46-.3-.75a1 1 0 0 1 .3-.735c.21-.21.46-.315.75-.315s.535.105.735.315Zm4.216 5.025c-.01.03-.025.085-.045.165 0 .03-.005.06-.015.09v.12a.283.283 0 0 0-.015.09v.045c0 .31.005.92.015 1.83.01.91.015 1.6.015 2.07 0 .29-.105.54-.315.75a1 1 0 0 1-.735.3c-.29 0-.54-.1-.75-.3-.2-.21-.3-.46-.3-.75 0-.42-.01-1.28-.03-2.58-.01-1.3-.05-2.37-.12-3.21-.01-.3.045-.52.165-.66.12-.15.33-.24.63-.27.52 0 .835.095.945.285.59-.37 1.26-.52 2.01-.45.62.06 1.185.265 1.695.615s.865.835 1.065 1.455c.11.34.185.77.225 1.29.05.52.07.96.06 1.32 0 .35-.015.82-.045 1.41l-.03.9a.97.97 0 0 1-.315.69c-.2.19-.435.28-.705.27a.97.97 0 0 1-.69-.315.937.937 0 0 1-.27-.705c0-.11.01-.44.03-.99.03-.55.045-.975.045-1.275.01-.3 0-.645-.03-1.035-.03-.4-.085-.72-.165-.96a.862.862 0 0 0-.36-.465 1.292 1.292 0 0 0-.675-.225c-.28-.03-.54.005-.78.105-.23.09-.4.22-.51.39Zm12.697-1.425c-.06 1.87-.075 3.815-.045 5.835 0 .29-.1.54-.3.75a1 1 0 0 1-.735.3.997.997 0 0 1-.75-.285c-.2-.2-.305-.445-.315-.735-.03-2.12-.015-4.105.045-5.955.01-.29.12-.53.33-.72.22-.2.475-.295.765-.285.29.01.53.125.72.345.2.21.295.46.285.75Zm-.39-3.6c.21.2.315.445.315.735s-.105.54-.315.75a1 1 0 0 1-.735.3c-.29 0-.54-.1-.75-.3-.2-.21-.3-.46-.3-.75a1 1 0 0 1 .3-.735c.21-.21.46-.315.75-.315s.535.105.735.315Zm6.616 5.16c-.13-.11-.245-.205-.345-.285-.1-.09-.175-.15-.225-.18l-.12-.12c-.11-.06-.31-.115-.6-.165-.12-.01-.275 0-.465.03s-.35.085-.48.165l-.09.06.03.06.015.015c.01.01.05.04.12.09.08.05.18.1.3.15.16.07.405.165.735.285.33.12.54.195.63.225.23.1.435.195.615.285.19.08.41.205.66.375.25.17.45.35.6.54.15.19.27.435.36.735.1.29.13.6.09.93-.05.34-.165.645-.345.915-.17.26-.38.47-.63.63a4.394 4.394 0 0 1-1.575.555c-.52.07-1.06.06-1.62-.03-.56-.1-1.025-.285-1.395-.555-.21-.16-.4-.385-.57-.675l-.12-.24a1.334 1.334 0 0 0-.075-.135.896.896 0 0 1-.15-.705c.06-.26.205-.46.435-.6.23-.15.48-.195.75-.135.28.05.495.185.645.405.06.09.12.19.18.3l.105.195c.03.04.05.075.06.105.12.08.32.145.6.195.28.05.57.05.87 0 .53-.08.805-.23.825-.45.02-.14-.035-.27-.165-.39-.13-.13-.43-.29-.9-.48-.07-.03-.29-.11-.66-.24-.37-.14-.635-.25-.795-.33-.72-.32-1.195-.71-1.425-1.17-.27-.54-.295-1.06-.075-1.56.17-.42.485-.75.945-.99.35-.18.73-.305 1.14-.375.4-.08.765-.095 1.095-.045.6.08 1.085.225 1.455.435a4 4 0 0 1 .27.225l.36.3c.13.11.215.185.255.225.21.17.325.39.345.66.02.26-.06.49-.24.69-.18.19-.41.295-.69.315-.27.02-.515-.06-.735-.24Zm9.014-2.925v-.495c.01-.19.015-.31.015-.36.01-.29.12-.53.33-.72.21-.2.46-.295.75-.285.29 0 .53.105.72.315.2.21.3.46.3.75 0 .04-.005.15-.015.33 0 .17-.005.32-.015.45.42.02.72.13.9.33.19.2.285.44.285.72 0 .27-.1.505-.3.705-.19.2-.5.31-.93.33 0 .31-.005.605-.015.885-.01.93.005 1.85.045 2.76h.015-.015c.01.02.03.045.06.075.04.02.095.05.165.09l.12.06.135.075c.05.02.09.04.12.06.19.09.345.18.465.27.24.16.39.38.45.66s.01.54-.15.78-.38.39-.66.45-.54.01-.78-.15c-.07-.04-.165-.09-.285-.15l-.42-.225c-.44-.24-.775-.51-1.005-.81a1.21 1.21 0 0 1-.225-.54c-.02-.1-.04-.22-.06-.36-.02-.19-.035-.47-.045-.84-.02-.57-.025-1.31-.015-2.22 0-.3.005-.615.015-.945-.48-.07-.79-.195-.93-.375-.13-.19-.195-.4-.195-.63 0-.23.07-.435.21-.615.15-.19.47-.315.96-.375Zm7.333 2.985c.04 1.93.06 3.36.06 4.29 0 .29-.105.54-.315.75a1 1 0 0 1-.735.3c-.29 0-.54-.1-.75-.3-.2-.21-.3-.46-.3-.75 0-.93-.02-2.33-.06-4.2-.04-1.87-.06-3.39-.06-4.56a1 1 0 0 1 .3-.735c.21-.21.46-.315.75-.315s.535.105.735.315c.21.2.315.445.315.735 0 .85.005 1.575.015 2.175l.06-.03c.78-.35 1.545-.45 2.295-.3.45.09.85.28 1.2.57.36.29.62.68.78 1.17.08.26.13.66.15 1.2.02.39.025.9.015 1.53-.01.33-.04 1.165-.09 2.505-.01.27-.12.5-.33.69a.963.963 0 0 1-.705.255.97.97 0 0 1-.69-.315c-.18-.21-.265-.45-.255-.72l.09-2.445c.01-.6.01-1.075 0-1.425-.02-.35-.045-.565-.075-.645-.07-.23-.23-.37-.48-.42-.34-.07-.705-.02-1.095.15-.13.06-.405.235-.825.525Zm11.655.48c-.01-.16-.08-.36-.21-.6-.12-.25-.39-.48-.81-.69-.49-.23-1.025-.21-1.605.06-.55.26-.855.695-.915 1.305l1.095.03c.38.01.845.015 1.395.015.55-.01.9-.05 1.05-.12Zm1.5 3.315c-.04.15-.155.34-.345.57-.2.19-.405.35-.615.48-.21.13-.545.245-1.005.345-.7.09-1.315.1-1.845.03-.52-.08-.99-.245-1.41-.495a3.99 3.99 0 0 1-1.095-1.005c-.31-.43-.56-1.05-.75-1.86-.08-.47-.07-.905.03-1.305.44-2.12 1.7-3.2 3.78-3.24 1.91.01 3.105 1.045 3.585 3.105.11.43.075.78-.105 1.05-.22.34-.605.53-1.155.57-.26.03-.65.055-1.17.075-.51.01-1.485-.035-2.925-.135.1.92.68 1.455 1.74 1.605.62.04 1.05-.055 1.29-.285.38-.39.7-.59.96-.6.26-.02.475.035.645.165.18.12.305.265.375.435.07.16.075.325.015.495Zm8.641-1.665c.2.37.425.64.675.81.25.16.495.24.735.24.15.05.41-.015.78-.195.39-.2.65-.53.78-.99.13-.46.105-.965-.075-1.515-.22-.49-.5-.815-.84-.975-.35-.16-.69-.175-1.02-.045-.33.13-.675.47-1.035 1.02v1.65Zm-.165-4.29c1.08-.6 2.11-.68 3.09-.24.86.4 1.49 1.11 1.89 2.13.16.42.255.86.285 1.32.04.45.005.92-.105 1.41-.1.48-.31.935-.63 1.365-.32.43-.735.77-1.245 1.02-.86.43-1.63.545-2.31.345-.28-.08-.555-.21-.825-.39l-.03 2.445c-.01.29-.12.535-.33.735a.95.95 0 0 1-.735.285.976.976 0 0 1-.735-.315 1 1 0 0 1-.3-.735c.03-1.73.045-4.67.045-8.82a1 1 0 0 1 .3-.735c.21-.21.46-.315.75-.315.38 0 .675.165.885.495Zm8.849.27c.4-.22 1-.47 1.8-.75.26-.09.51-.075.75.045.25.11.42.295.51.555a.97.97 0 0 1-.045.765.91.91 0 0 1-.555.495c-.92.32-1.705.635-2.355.945-.04.32-.045.775-.015 1.365.01.63.02 1.52.03 2.67 0 .29-.105.54-.315.75a.976.976 0 0 1-.735.315c-.28 0-.525-.105-.735-.315a.96.96 0 0 1-.315-.72c-.01-.99-.015-1.77-.015-2.34a.999.999 0 0 1 0-.345c-.01-1.11-.015-2.115-.015-3.015 0-.39.1-.685.3-.885.21-.21.46-.315.75-.315.21 0 .4.06.57.18.18.11.31.31.39.6Zm9.109 2.37c-.01-.16-.08-.36-.21-.6-.12-.25-.39-.48-.81-.69-.49-.23-1.025-.21-1.605.06-.55.26-.855.695-.915 1.305l1.095.03c.38.01.845.015 1.395.015.55-.01.9-.05 1.05-.12Zm1.5 3.315c-.04.15-.155.34-.345.57-.2.19-.405.35-.615.48-.21.13-.545.245-1.005.345-.7.09-1.315.1-1.845.03-.52-.08-.99-.245-1.41-.495a3.99 3.99 0 0 1-1.095-1.005c-.31-.43-.56-1.05-.75-1.86-.08-.47-.07-.905.03-1.305.44-2.12 1.7-3.2 3.78-3.24 1.91.01 3.105 1.045 3.585 3.105.11.43.075.78-.105 1.05-.22.34-.605.53-1.155.57-.26.03-.65.055-1.17.075-.51.01-1.485-.035-2.925-.135.1.92.68 1.455 1.74 1.605.62.04 1.05-.055 1.29-.285.38-.39.7-.59.96-.6.26-.02.475.035.645.165.18.12.305.265.375.435.07.16.075.325.015.495Zm6.245-6.99c-.11-.01-.355-.045-.735-.105-.22-.04-.38-.06-.48-.06-.09 0-.145.015-.165.045a4.106 4.106 0 0 0 0 .765v.03l.75.015c.29.01.535.12.735.33.2.21.295.46.285.75-.01.29-.12.535-.33.735-.21.2-.46.295-.75.285l-.555-.015c.05 1.58.03 3.15-.06 4.71-.02.28-.14.52-.36.72a1.02 1.02 0 0 1-.765.255c-.28-.02-.52-.14-.72-.36a1.02 1.02 0 0 1-.255-.765c.09-1.52.115-3.065.075-4.635-.26-.04-.48-.16-.66-.36a.994.994 0 0 1-.24-.705c.01-.23.085-.435.225-.615a1 1 0 0 1 .525-.36 7.26 7.26 0 0 1 0-.675c.01-.41.08-.74.21-.99.41-.83 1.09-1.25 2.04-1.26.23 0 .52.03.87.09l.57.105c.29.03.525.16.705.39a1 1 0 0 1 .225.765.98.98 0 0 1-.39.69.977.977 0 0 1-.75.225Zm6.64 3.675c-.01-.16-.08-.36-.21-.6-.12-.25-.39-.48-.81-.69-.49-.23-1.025-.21-1.605.06-.55.26-.855.695-.915 1.305l1.095.03c.38.01.845.015 1.395.015.55-.01.9-.05 1.05-.12Zm1.5 3.315c-.04.15-.155.34-.345.57-.2.19-.405.35-.615.48-.21.13-.545.245-1.005.345-.7.09-1.315.1-1.845.03-.52-.08-.99-.245-1.41-.495a3.99 3.99 0 0 1-1.095-1.005c-.31-.43-.56-1.05-.75-1.86-.08-.47-.07-.905.03-1.305.44-2.12 1.7-3.2 3.78-3.24 1.91.01 3.105 1.045 3.585 3.105.11.43.075.78-.105 1.05-.22.34-.605.53-1.155.57-.26.03-.65.055-1.17.075-.51.01-1.485-.035-2.925-.135.1.92.68 1.455 1.74 1.605.62.04 1.05-.055 1.29-.285.38-.39.7-.59.96-.6.26-.02.475.035.645.165.18.12.305.265.375.435.07.16.075.325.015.495Zm4.024-5.685c.4-.22 1-.47 1.8-.75.26-.09.51-.075.75.045.25.11.42.295.51.555a.97.97 0 0 1-.045.765.91.91 0 0 1-.555.495c-.92.32-1.705.635-2.355.945-.04.32-.045.775-.015 1.365.01.63.02 1.52.03 2.67 0 .29-.105.54-.315.75a.976.976 0 0 1-.735.315c-.28 0-.525-.105-.735-.315a.96.96 0 0 1-.315-.72c-.01-.99-.015-1.77-.015-2.34a.999.999 0 0 1 0-.345c-.01-1.11-.015-2.115-.015-3.015 0-.39.1-.685.3-.885.21-.21.46-.315.75-.315.21 0 .4.06.57.18.18.11.31.31.39.6Zm6.197 0c.4-.22 1-.47 1.8-.75.26-.09.51-.075.75.045.25.11.42.295.51.555a.97.97 0 0 1-.045.765.91.91 0 0 1-.555.495c-.92.32-1.705.635-2.355.945-.04.32-.045.775-.015 1.365.01.63.02 1.52.03 2.67 0 .29-.105.54-.315.75a.976.976 0 0 1-.735.315c-.28 0-.525-.105-.735-.315a.96.96 0 0 1-.315-.72c-.01-.99-.015-1.77-.015-2.34a.999.999 0 0 1 0-.345c-.01-1.11-.015-2.115-.015-3.015 0-.39.1-.685.3-.885.21-.21.46-.315.75-.315.21 0 .4.06.57.18.18.11.31.31.39.6Zm9.109 2.37c-.01-.16-.08-.36-.21-.6-.12-.25-.39-.48-.81-.69-.49-.23-1.025-.21-1.605.06-.55.26-.855.695-.915 1.305l1.095.03c.38.01.845.015 1.395.015.55-.01.9-.05 1.05-.12Zm1.5 3.315c-.04.15-.155.34-.345.57-.2.19-.405.35-.615.48-.21.13-.545.245-1.005.345-.7.09-1.315.1-1.845.03-.52-.08-.99-.245-1.41-.495a3.99 3.99 0 0 1-1.095-1.005c-.31-.43-.56-1.05-.75-1.86-.08-.47-.07-.905.03-1.305.44-2.12 1.7-3.2 3.78-3.24 1.91.01 3.105 1.045 3.585 3.105.11.43.075.78-.105 1.05-.22.34-.605.53-1.155.57-.26.03-.65.055-1.17.075-.51.01-1.485-.035-2.925-.135.1.92.68 1.455 1.74 1.605.62.04 1.05-.055 1.29-.285.38-.39.7-.59.96-.6.26-.02.475.035.645.165.18.12.305.265.375.435.07.16.075.325.015.495Zm7.265-2.235c-.01-.47-.015-.99-.015-1.56-.01 0-.19-.125-.54-.375a.902.902 0 0 0-.255-.135c-.62-.2-1.135-.16-1.545.12-.38.27-.635.685-.765 1.245-.13.59-.075 1.1.165 1.53.24.43.615.69 1.125.78.31.06.545.055.705-.015.16-.07.355-.245.585-.525a.985.985 0 0 0 .135-.195l.135-.315c.06-.15.135-.31.225-.48a.188.188 0 0 1 .045-.075Zm2.025-6.03c.05 4.91.075 7.785.075 8.625 0 .29-.105.54-.315.75a1 1 0 0 1-.735.3c-.3 0-.555-.16-.765-.48-.19.15-.39.27-.6.36-.54.22-1.165.27-1.875.15a3.967 3.967 0 0 1-1.365-.495c-.39-.25-.7-.54-.93-.87-.23-.33-.42-.695-.57-1.095-.14-.4-.21-.8-.21-1.2.01-.4.045-.79.105-1.17.24-1.09.78-1.925 1.62-2.505.97-.67 2.09-.81 3.36-.42.04.02.085.04.135.06a71.97 71.97 0 0 0-.03-1.98 1 1 0 0 1 .3-.735c.2-.21.445-.315.735-.315a.95.95 0 0 1 .735.285c.21.2.32.445.33.735Zm13.209 7.305c-.03.06-.06.125-.09.195-.03.06-.06.13-.09.21-.03.08-.06.145-.09.195-.16.38-.35.68-.57.9-.34.35-.745.595-1.215.735-.46.16-.91.22-1.35.18-.44-.04-.865-.14-1.275-.3a4.118 4.118 0 0 1-1.635-1.2 3.366 3.366 0 0 1-.765-1.89c-.04-.59.055-1.19.285-1.8a4.64 4.64 0 0 1 1.005-1.59c.31-.32.655-.575 1.035-.765.39-.2.83-.325 1.32-.375.49-.05.985.035 1.485.255.27.11.555.29.855.54.02.02.085.08.195.18l.27.225c.23.18.36.41.39.69a.95.95 0 0 1-.21.75c-.18.22-.415.35-.705.39-.28.03-.535-.045-.765-.225-.02-.01-.21-.17-.57-.48-.12-.1-.21-.165-.27-.195-.54-.22-1.04-.085-1.5.405-.24.25-.43.545-.57.885-.13.34-.18.66-.15.96.02.28.13.545.33.795s.465.44.795.57c.35.13.645.18.885.15.25-.04.45-.135.6-.285.05-.05.11-.155.18-.315l.33-.72c.13-.25.33-.415.6-.495.28-.09.55-.07.81.06.26.12.43.315.51.585.09.27.07.53-.06.78Zm3.208-2.835c.04 1.93.06 3.36.06 4.29 0 .29-.105.54-.315.75a1 1 0 0 1-.735.3c-.29 0-.54-.1-.75-.3-.2-.21-.3-.46-.3-.75 0-.93-.02-2.33-.06-4.2-.04-1.87-.06-3.39-.06-4.56a1 1 0 0 1 .3-.735c.21-.21.46-.315.75-.315s.535.105.735.315c.21.2.315.445.315.735 0 .85.005 1.575.015 2.175l.06-.03c.78-.35 1.545-.45 2.295-.3.45.09.85.28 1.2.57.36.29.62.68.78 1.17.08.26.13.66.15 1.2.02.39.025.9.015 1.53-.01.33-.04 1.165-.09 2.505-.01.27-.12.5-.33.69a.963.963 0 0 1-.705.255.97.97 0 0 1-.69-.315c-.18-.21-.265-.45-.255-.72l.09-2.445c.01-.6.01-1.075 0-1.425-.02-.35-.045-.565-.075-.645-.07-.23-.23-.37-.48-.42-.34-.07-.705-.02-1.095.15-.13.06-.405.235-.825.525Zm9.105-.69c-.17.05-.26.075-.27.075l-.15.06c-.28.23-.495.55-.645.96-.14.41-.18.835-.12 1.275.04.42.165.76.375 1.02.22.26.505.425.855.495.42.08.74.08.96 0 .19-.07.38-.26.57-.57.19-.32.31-.72.36-1.2.06-.49.03-.895-.09-1.215-.11-.32-.25-.515-.42-.585-.13-.06-.25-.1-.36-.12a3.001 3.001 0 0 0-.465-.075c-.2-.03-.4-.07-.6-.12Zm.435-1.98c.94.15 1.57.295 1.89.435.37.18.68.425.93.735.26.31.44.64.54.99.11.35.19.72.24 1.11.05.38.045.725-.015 1.035-.05.48-.16.94-.33 1.38-.17.44-.43.86-.78 1.26-.34.4-.745.68-1.215.84-.57.2-1.25.22-2.04.06-.87-.17-1.55-.56-2.04-1.17a4.113 4.113 0 0 1-.885-2.1 4.85 4.85 0 0 1 .24-2.19c.26-.73.68-1.34 1.26-1.83.24-.18.535-.325.885-.435.01 0 .115-.03.315-.09a.93.93 0 0 0 .18-.06.99.99 0 0 1 .825.03Zm7.131 1.05c-.06 1.87-.075 3.815-.045 5.835 0 .29-.1.54-.3.75a1 1 0 0 1-.735.3.997.997 0 0 1-.75-.285c-.2-.2-.305-.445-.315-.735-.03-2.12-.015-4.105.045-5.955.01-.29.12-.53.33-.72.22-.2.475-.295.765-.285.29.01.53.125.72.345.2.21.295.46.285.75Zm-.39-3.6c.21.2.315.445.315.735s-.105.54-.315.75a1 1 0 0 1-.735.3c-.29 0-.54-.1-.75-.3-.2-.21-.3-.46-.3-.75a1 1 0 0 1 .3-.735c.21-.21.46-.315.75-.315s.535.105.735.315Zm9.046 8.055c-.03.06-.06.125-.09.195-.03.06-.06.13-.09.21-.03.08-.06.145-.09.195-.16.38-.35.68-.57.9-.34.35-.745.595-1.215.735-.46.16-.91.22-1.35.18-.44-.04-.865-.14-1.275-.3a4.118 4.118 0 0 1-1.635-1.2 3.366 3.366 0 0 1-.765-1.89c-.04-.59.055-1.19.285-1.8a4.64 4.64 0 0 1 1.005-1.59c.31-.32.655-.575 1.035-.765.39-.2.83-.325 1.32-.375.49-.05.985.035 1.485.255.27.11.555.29.855.54.02.02.085.08.195.18l.27.225c.23.18.36.41.39.69a.95.95 0 0 1-.21.75c-.18.22-.415.35-.705.39-.28.03-.535-.045-.765-.225-.02-.01-.21-.17-.57-.48-.12-.1-.21-.165-.27-.195-.54-.22-1.04-.085-1.5.405-.24.25-.43.545-.57.885-.13.34-.18.66-.15.96.02.28.13.545.33.795s.465.44.795.57c.35.13.645.18.885.15.25-.04.45-.135.6-.285.05-.05.11-.155.18-.315l.33-.72c.13-.25.33-.415.6-.495.28-.09.55-.07.81.06.26.12.43.315.51.585.09.27.07.53-.06.78Zm7.378-2.355c-.01-.16-.08-.36-.21-.6-.12-.25-.39-.48-.81-.69-.49-.23-1.025-.21-1.605.06-.55.26-.855.695-.915 1.305l1.095.03c.38.01.845.015 1.395.015.55-.01.9-.05 1.05-.12Zm1.5 3.315c-.04.15-.155.34-.345.57-.2.19-.405.35-.615.48-.21.13-.545.245-1.005.345-.7.09-1.315.1-1.845.03-.52-.08-.99-.245-1.41-.495a3.99 3.99 0 0 1-1.095-1.005c-.31-.43-.56-1.05-.75-1.86-.08-.47-.07-.905.03-1.305.44-2.12 1.7-3.2 3.78-3.24 1.91.01 3.105 1.045 3.585 3.105.11.43.075.78-.105 1.05-.22.34-.605.53-1.155.57-.26.03-.65.055-1.17.075-.51.01-1.485-.035-2.925-.135.1.92.68 1.455 1.74 1.605.62.04 1.05-.055 1.29-.285.38-.39.7-.59.96-.6.26-.02.475.035.645.165.18.12.305.265.375.435.07.16.075.325.015.495Zm7.667-6.78v-.495c.01-.19.015-.31.015-.36.01-.29.12-.53.33-.72.21-.2.46-.295.75-.285.29 0 .53.105.72.315.2.21.3.46.3.75 0 .04-.005.15-.015.33 0 .17-.005.32-.015.45.42.02.72.13.9.33.19.2.285.44.285.72 0 .27-.1.505-.3.705-.19.2-.5.31-.93.33 0 .31-.005.605-.015.885-.01.93.005 1.85.045 2.76h.015-.015c.01.02.03.045.06.075.04.02.095.05.165.09l.12.06.135.075c.05.02.09.04.12.06.19.09.345.18.465.27.24.16.39.38.45.66s.01.54-.15.78-.38.39-.66.45-.54.01-.78-.15c-.07-.04-.165-.09-.285-.15l-.42-.225c-.44-.24-.775-.51-1.005-.81a1.21 1.21 0 0 1-.225-.54c-.02-.1-.04-.22-.06-.36-.02-.19-.035-.47-.045-.84-.02-.57-.025-1.31-.015-2.22 0-.3.005-.615.015-.945-.48-.07-.79-.195-.93-.375-.13-.19-.195-.4-.195-.63 0-.23.07-.435.21-.615.15-.19.47-.315.96-.375Zm7.333 2.985c.04 1.93.06 3.36.06 4.29 0 .29-.105.54-.315.75a1 1 0 0 1-.735.3c-.29 0-.54-.1-.75-.3-.2-.21-.3-.46-.3-.75 0-.93-.02-2.33-.06-4.2-.04-1.87-.06-3.39-.06-4.56a1 1 0 0 1 .3-.735c.21-.21.46-.315.75-.315s.535.105.735.315c.21.2.315.445.315.735 0 .85.005 1.575.015 2.175l.06-.03c.78-.35 1.545-.45 2.295-.3.45.09.85.28 1.2.57.36.29.62.68.78 1.17.08.26.13.66.15 1.2.02.39.025.9.015 1.53-.01.33-.04 1.165-.09 2.505-.01.27-.12.5-.33.69a.963.963 0 0 1-.705.255.97.97 0 0 1-.69-.315c-.18-.21-.265-.45-.255-.72l.09-2.445c.01-.6.01-1.075 0-1.425-.02-.35-.045-.565-.075-.645-.07-.23-.23-.37-.48-.42-.34-.07-.705-.02-1.095.15-.13.06-.405.235-.825.525Zm11.654.48c-.01-.16-.08-.36-.21-.6-.12-.25-.39-.48-.81-.69-.49-.23-1.025-.21-1.605.06-.55.26-.855.695-.915 1.305l1.095.03c.38.01.845.015 1.395.015.55-.01.9-.05 1.05-.12Zm1.5 3.315c-.04.15-.155.34-.345.57-.2.19-.405.35-.615.48-.21.13-.545.245-1.005.345-.7.09-1.315.1-1.845.03-.52-.08-.99-.245-1.41-.495a3.99 3.99 0 0 1-1.095-1.005c-.31-.43-.56-1.05-.75-1.86-.08-.47-.07-.905.03-1.305.44-2.12 1.7-3.2 3.78-3.24 1.91.01 3.105 1.045 3.585 3.105.11.43.075.78-.105 1.05-.22.34-.605.53-1.155.57-.26.03-.65.055-1.17.075-.51.01-1.485-.035-2.925-.135.1.92.68 1.455 1.74 1.605.62.04 1.05-.055 1.29-.285.38-.39.7-.59.96-.6.26-.02.475.035.645.165.18.12.305.265.375.435.07.16.075.325.015.495Zm6.71-3.855c-.13-.11-.245-.205-.345-.285-.1-.09-.175-.15-.225-.18l-.12-.12c-.11-.06-.31-.115-.6-.165-.12-.01-.275 0-.465.03s-.35.085-.48.165l-.09.06.03.06.015.015c.01.01.05.04.12.09.08.05.18.1.3.15.16.07.405.165.735.285.33.12.54.195.63.225.23.1.435.195.615.285.19.08.41.205.66.375.25.17.45.35.6.54.15.19.27.435.36.735.1.29.13.6.09.93-.05.34-.165.645-.345.915-.17.26-.38.47-.63.63a4.394 4.394 0 0 1-1.575.555c-.52.07-1.06.06-1.62-.03-.56-.1-1.025-.285-1.395-.555-.21-.16-.4-.385-.57-.675l-.12-.24a1.334 1.334 0 0 0-.075-.135.896.896 0 0 1-.15-.705c.06-.26.205-.46.435-.6.23-.15.48-.195.75-.135.28.05.495.185.645.405.06.09.12.19.18.3l.105.195c.03.04.05.075.06.105.12.08.32.145.6.195.28.05.57.05.87 0 .53-.08.805-.23.825-.45.02-.14-.035-.27-.165-.39-.13-.13-.43-.29-.9-.48-.07-.03-.29-.11-.66-.24-.37-.14-.635-.25-.795-.33-.72-.32-1.195-.71-1.425-1.17-.27-.54-.295-1.06-.075-1.56.17-.42.485-.75.945-.99.35-.18.73-.305 1.14-.375.4-.08.765-.095 1.095-.045.6.08 1.085.225 1.455.435a4 4 0 0 1 .27.225l.36.3c.13.11.215.185.255.225.21.17.325.39.345.66.02.26-.06.49-.24.69-.18.19-.41.295-.69.315-.27.02-.515-.06-.735-.24Zm9.032.54c-.01-.16-.08-.36-.21-.6-.12-.25-.39-.48-.81-.69-.49-.23-1.025-.21-1.605.06-.55.26-.855.695-.915 1.305l1.095.03c.38.01.845.015 1.395.015.55-.01.9-.05 1.05-.12Zm1.5 3.315c-.04.15-.155.34-.345.57-.2.19-.405.35-.615.48-.21.13-.545.245-1.005.345-.7.09-1.315.1-1.845.03-.52-.08-.99-.245-1.41-.495a3.99 3.99 0 0 1-1.095-1.005c-.31-.43-.56-1.05-.75-1.86-.08-.47-.07-.905.03-1.305.44-2.12 1.7-3.2 3.78-3.24 1.91.01 3.105 1.045 3.585 3.105.11.43.075.78-.105 1.05-.22.34-.605.53-1.155.57-.26.03-.65.055-1.17.075-.51.01-1.485-.035-2.925-.135.1.92.68 1.455 1.74 1.605.62.04 1.05-.055 1.29-.285.38-.39.7-.59.96-.6.26-.02.475.035.645.165.18.12.305.265.375.435.07.16.075.325.015.495Zm-245.729 24.765c-.01-.47-.015-.99-.015-1.56-.01 0-.19-.125-.54-.375a.902.902 0 0 0-.255-.135c-.62-.2-1.135-.16-1.545.12-.38.27-.635.685-.765 1.245-.13.59-.075 1.1.165 1.53.24.43.615.69 1.125.78.31.06.545.055.705-.015.16-.07.355-.245.585-.525a.985.985 0 0 0 .135-.195l.135-.315c.06-.15.135-.31.225-.48a.188.188 0 0 1 .045-.075Zm2.025-6.03c.05 4.91.075 7.785.075 8.625 0 .29-.105.54-.315.75a1 1 0 0 1-.735.3c-.3 0-.555-.16-.765-.48-.19.15-.39.27-.6.36-.54.22-1.165.27-1.875.15a3.967 3.967 0 0 1-1.365-.495c-.39-.25-.7-.54-.93-.87-.23-.33-.42-.695-.57-1.095-.14-.4-.21-.8-.21-1.2.01-.4.045-.79.105-1.17.24-1.09.78-1.925 1.62-2.505.97-.67 2.09-.81 3.36-.42.04.02.085.04.135.06a71.97 71.97 0 0 0-.03-1.98 1 1 0 0 1 .3-.735c.2-.21.445-.315.735-.315a.95.95 0 0 1 .735.285c.21.2.32.445.33.735Zm6.762 6.345c-.03-.8-.07-1.49-.12-2.07l-.15-.105-.21-.165-.135-.09c-.41-.12-.825-.045-1.245.225-.41.27-.735.705-.975 1.305-.23.58-.295 1.05-.195 1.41.1.35.325.585.675.705.44.16.89.07 1.35-.27.08-.05.15-.105.21-.165l.24-.27.345-.36a.8.8 0 0 1 .21-.15Zm1.86-3.21a29.601 29.601 0 0 1 .18 2.235l.045 1.05.045 1.17c.02.53.035.875.045 1.035.01.29-.085.545-.285.765-.2.21-.44.32-.72.33-.23.01-.44-.045-.63-.165-.18-.13-.31-.3-.39-.51-1.04.72-2.105.885-3.195.495-.57-.2-1.03-.495-1.38-.885-.34-.4-.555-.835-.645-1.305a5.226 5.226 0 0 1-.045-1.425c.05-.49.165-.945.345-1.365.19-.42.43-.815.72-1.185.29-.37.64-.7 1.05-.99.42-.29.875-.475 1.365-.555.49-.09 1.02-.065 1.59.075.23.06.455.165.675.315h.075c.29-.04.545.03.765.21.23.18.36.415.39.705Zm1.574 7.875c.15-.14.315-.29.495-.45.19-.15.34-.28.45-.39.12-.11.23-.23.33-.36.19-.23.37-.48.54-.75a.33.33 0 0 1-.06-.135l-2.115-5.73c-.1-.27-.095-.535.015-.795a1 1 0 0 1 .585-.555 1 1 0 0 1 .795.03c.27.11.455.3.555.57l1.455 4.065c.23-.61.62-1.94 1.17-3.99a.91.91 0 0 1 .465-.585c.24-.13.49-.155.75-.075.27.07.47.225.6.465.13.24.155.495.075.765-.03.09-.11.41-.24.96-.12.54-.205.885-.255 1.035-.05.15-.14.43-.27.84-.12.41-.22.715-.3.915l-.33.87c-.14.36-.27.66-.39.9l-.42.81c-.16.31-.33.595-.51.855-.18.27-.365.525-.555.765-.13.17-.29.34-.48.51l-.6.54c-.2.18-.325.3-.375.36-.2.19-.44.28-.72.27a.97.97 0 0 1-.69-.315.909.909 0 0 1-.27-.705c.01-.27.11-.5.3-.69Zm12.419-6.6c-.13-.11-.245-.205-.345-.285-.1-.09-.175-.15-.225-.18l-.12-.12c-.11-.06-.31-.115-.6-.165-.12-.01-.275 0-.465.03s-.35.085-.48.165l-.09.06.03.06.015.015c.01.01.05.04.12.09.08.05.18.1.3.15.16.07.405.165.735.285.33.12.54.195.63.225.23.1.435.195.615.285.19.08.41.205.66.375.25.17.45.35.6.54.15.19.27.435.36.735.1.29.13.6.09.93-.05.34-.165.645-.345.915-.17.26-.38.47-.63.63a4.394 4.394 0 0 1-1.575.555c-.52.07-1.06.06-1.62-.03-.56-.1-1.025-.285-1.395-.555-.21-.16-.4-.385-.57-.675l-.12-.24a1.334 1.334 0 0 0-.075-.135.896.896 0 0 1-.15-.705c.06-.26.205-.46.435-.6.23-.15.48-.195.75-.135.28.05.495.185.645.405.06.09.12.19.18.3l.105.195c.03.04.05.075.06.105.12.08.32.145.6.195.28.05.57.05.87 0 .53-.08.805-.23.825-.45.02-.14-.035-.27-.165-.39-.13-.13-.43-.29-.9-.48-.07-.03-.29-.11-.66-.24-.37-.14-.635-.25-.795-.33-.72-.32-1.195-.71-1.425-1.17-.27-.54-.295-1.06-.075-1.56.17-.42.485-.75.945-.99.35-.18.73-.305 1.14-.375.4-.08.765-.095 1.095-.045.6.08 1.085.225 1.455.435a4 4 0 0 1 .27.225l.36.3c.13.11.215.185.255.225.21.17.325.39.345.66.02.26-.06.49-.24.69-.18.19-.41.295-.69.315-.27.02-.515-.06-.735-.24Zm12.089-3.135c-.11-.01-.355-.045-.735-.105-.22-.04-.38-.06-.48-.06-.09 0-.145.015-.165.045a4.106 4.106 0 0 0 0 .765v.03l.75.015c.29.01.535.12.735.33.2.21.295.46.285.75-.01.29-.12.535-.33.735-.21.2-.46.295-.75.285l-.555-.015c.05 1.58.03 3.15-.06 4.71-.02.28-.14.52-.36.72a1.02 1.02 0 0 1-.765.255c-.28-.02-.52-.14-.72-.36a1.02 1.02 0 0 1-.255-.765c.09-1.52.115-3.065.075-4.635-.26-.04-.48-.16-.66-.36a.994.994 0 0 1-.24-.705c.01-.23.085-.435.225-.615a1 1 0 0 1 .525-.36 7.26 7.26 0 0 1 0-.675c.01-.41.08-.74.21-.99.41-.83 1.09-1.25 2.04-1.26.23 0 .52.03.87.09l.57.105c.29.03.525.16.705.39a1 1 0 0 1 .225.765.98.98 0 0 1-.39.69.977.977 0 0 1-.75.225Zm4.369 2.505c-.17.05-.26.075-.27.075l-.15.06c-.28.23-.495.55-.645.96-.14.41-.18.835-.12 1.275.04.42.165.76.375 1.02.22.26.505.425.855.495.42.08.74.08.96 0 .19-.07.38-.26.57-.57.19-.32.31-.72.36-1.2.06-.49.03-.895-.09-1.215-.11-.32-.25-.515-.42-.585-.13-.06-.25-.1-.36-.12a3.001 3.001 0 0 0-.465-.075c-.2-.03-.4-.07-.6-.12Zm.435-1.98c.94.15 1.57.295 1.89.435.37.18.68.425.93.735.26.31.44.64.54.99.11.35.19.72.24 1.11.05.38.045.725-.015 1.035-.05.48-.16.94-.33 1.38-.17.44-.43.86-.78 1.26-.34.4-.745.68-1.215.84-.57.2-1.25.22-2.04.06-.87-.17-1.55-.56-2.04-1.17a4.113 4.113 0 0 1-.885-2.1 4.85 4.85 0 0 1 .24-2.19c.26-.73.68-1.34 1.26-1.83.24-.18.535-.325.885-.435.01 0 .115-.03.315-.09a.93.93 0 0 0 .18-.06.99.99 0 0 1 .825.03Zm6.965.78c.4-.22 1-.47 1.8-.75.26-.09.51-.075.75.045.25.11.42.295.51.555a.97.97 0 0 1-.045.765.91.91 0 0 1-.555.495c-.92.32-1.705.635-2.355.945-.04.32-.045.775-.015 1.365.01.63.02 1.52.03 2.67 0 .29-.105.54-.315.75a.976.976 0 0 1-.735.315c-.28 0-.525-.105-.735-.315a.96.96 0 0 1-.315-.72c-.01-.99-.015-1.77-.015-2.34a.999.999 0 0 1 0-.345c-.01-1.11-.015-2.115-.015-3.015 0-.39.1-.685.3-.885.21-.21.46-.315.75-.315.21 0 .4.06.57.18.18.11.31.31.39.6Zm11.506 1.695c-.01.03-.025.085-.045.165 0 .03-.005.06-.015.09v.12a.283.283 0 0 0-.015.09v.045c0 .31.005.92.015 1.83.01.91.015 1.6.015 2.07 0 .29-.105.54-.315.75a1 1 0 0 1-.735.3c-.29 0-.54-.1-.75-.3-.2-.21-.3-.46-.3-.75 0-.42-.01-1.28-.03-2.58-.01-1.3-.05-2.37-.12-3.21-.01-.3.045-.52.165-.66.12-.15.33-.24.63-.27.52 0 .835.095.945.285.59-.37 1.26-.52 2.01-.45.62.06 1.185.265 1.695.615s.865.835 1.065 1.455c.11.34.185.77.225 1.29.05.52.07.96.06 1.32 0 .35-.015.82-.045 1.41l-.03.9a.97.97 0 0 1-.315.69c-.2.19-.435.28-.705.27a.97.97 0 0 1-.69-.315.937.937 0 0 1-.27-.705c0-.11.01-.44.03-.99.03-.55.045-.975.045-1.275.01-.3 0-.645-.03-1.035-.03-.4-.085-.72-.165-.96a.862.862 0 0 0-.36-.465 1.292 1.292 0 0 0-.675-.225c-.28-.03-.54.005-.78.105-.23.09-.4.22-.51.39Zm11.2 2.07c-.03-.8-.07-1.49-.12-2.07l-.15-.105-.21-.165-.135-.09c-.41-.12-.825-.045-1.245.225-.41.27-.735.705-.975 1.305-.23.58-.295 1.05-.195 1.41.1.35.325.585.675.705.44.16.89.07 1.35-.27.08-.05.15-.105.21-.165l.24-.27.345-.36a.8.8 0 0 1 .21-.15Zm1.86-3.21a29.601 29.601 0 0 1 .18 2.235l.045 1.05.045 1.17c.02.53.035.875.045 1.035.01.29-.085.545-.285.765-.2.21-.44.32-.72.33-.23.01-.44-.045-.63-.165-.18-.13-.31-.3-.39-.51-1.04.72-2.105.885-3.195.495-.57-.2-1.03-.495-1.38-.885-.34-.4-.555-.835-.645-1.305a5.226 5.226 0 0 1-.045-1.425c.05-.49.165-.945.345-1.365.19-.42.43-.815.72-1.185.29-.37.64-.7 1.05-.99.42-.29.875-.475 1.365-.555.49-.09 1.02-.065 1.59.075.23.06.455.165.675.315h.075c.29-.04.545.03.765.21.23.18.36.415.39.705Zm2.148-1.65v-.495c.01-.19.015-.31.015-.36.01-.29.12-.53.33-.72.21-.2.46-.295.75-.285.29 0 .53.105.72.315.2.21.3.46.3.75 0 .04-.005.15-.015.33 0 .17-.005.32-.015.45.42.02.72.13.9.33.19.2.285.44.285.72 0 .27-.1.505-.3.705-.19.2-.5.31-.93.33 0 .31-.005.605-.015.885-.01.93.005 1.85.045 2.76h.015-.015c.01.02.03.045.06.075.04.02.095.05.165.09l.12.06.135.075c.05.02.09.04.12.06.19.09.345.18.465.27.24.16.39.38.45.66s.01.54-.15.78-.38.39-.66.45-.54.01-.78-.15c-.07-.04-.165-.09-.285-.15l-.42-.225c-.44-.24-.775-.51-1.005-.81a1.21 1.21 0 0 1-.225-.54c-.02-.1-.04-.22-.06-.36-.02-.19-.035-.47-.045-.84-.02-.57-.025-1.31-.015-2.22 0-.3.005-.615.015-.945-.48-.07-.79-.195-.93-.375-.13-.19-.195-.4-.195-.63 0-.23.07-.435.21-.615.15-.19.47-.315.96-.375Zm7.362 1.365c-.06 1.87-.075 3.815-.045 5.835 0 .29-.1.54-.3.75a1 1 0 0 1-.735.3.997.997 0 0 1-.75-.285c-.2-.2-.305-.445-.315-.735-.03-2.12-.015-4.105.045-5.955.01-.29.12-.53.33-.72.22-.2.475-.295.765-.285.29.01.53.125.72.345.2.21.295.46.285.75Zm-.39-3.6c.21.2.315.445.315.735s-.105.54-.315.75a1 1 0 0 1-.735.3c-.29 0-.54-.1-.75-.3-.2-.21-.3-.46-.3-.75a1 1 0 0 1 .3-.735c.21-.21.46-.315.75-.315s.535.105.735.315Zm8.204 4.08-.315.675-1.065 2.22-.24.525-.255.6c-.12.28-.2.47-.24.57-.03.09-.11.3-.24.63l-.24.585c-.11.25-.29.43-.54.54-.24.1-.49.1-.75 0a.999.999 0 0 1-.585-.72.167.167 0 0 0-.015-.075c-.64-2.11-1.355-3.98-2.145-5.61a.984.984 0 0 1 .39-1.35c.24-.14.49-.17.75-.09.26.07.455.23.585.48a41.14 41.14 0 0 1 1.515 3.57 46.064 46.064 0 0 1 1.725-3.615c.14-.23.34-.375.6-.435.27-.06.52-.015.75.135.23.14.375.34.435.6.07.26.03.515-.12.765Zm6.17 1.62c-.01-.16-.08-.36-.21-.6-.12-.25-.39-.48-.81-.69-.49-.23-1.025-.21-1.605.06-.55.26-.855.695-.915 1.305l1.095.03c.38.01.845.015 1.395.015.55-.01.9-.05 1.05-.12Zm1.5 3.315c-.04.15-.155.34-.345.57-.2.19-.405.35-.615.48-.21.13-.545.245-1.005.345-.7.09-1.315.1-1.845.03-.52-.08-.99-.245-1.41-.495a3.99 3.99 0 0 1-1.095-1.005c-.31-.43-.56-1.05-.75-1.86-.08-.47-.07-.905.03-1.305.44-2.12 1.7-3.2 3.78-3.24 1.91.01 3.105 1.045 3.585 3.105.11.43.075.78-.105 1.05-.22.34-.605.53-1.155.57-.26.03-.65.055-1.17.075-.51.01-1.485-.035-2.925-.135.1.92.68 1.455 1.74 1.605.62.04 1.05-.055 1.29-.285.38-.39.7-.59.96-.6.26-.02.475.035.645.165.18.12.305.265.375.435.07.16.075.325.015.495Zm11.686-1.92c-.03-.8-.07-1.49-.12-2.07l-.15-.105-.21-.165-.135-.09c-.41-.12-.825-.045-1.245.225-.41.27-.735.705-.975 1.305-.23.58-.295 1.05-.195 1.41.1.35.325.585.675.705.44.16.89.07 1.35-.27.08-.05.15-.105.21-.165l.24-.27.345-.36a.8.8 0 0 1 .21-.15Zm1.86-3.21a29.601 29.601 0 0 1 .18 2.235l.045 1.05.045 1.17c.02.53.035.875.045 1.035.01.29-.085.545-.285.765-.2.21-.44.32-.72.33-.23.01-.44-.045-.63-.165-.18-.13-.31-.3-.39-.51-1.04.72-2.105.885-3.195.495-.57-.2-1.03-.495-1.38-.885-.34-.4-.555-.835-.645-1.305a5.226 5.226 0 0 1-.045-1.425c.05-.49.165-.945.345-1.365.19-.42.43-.815.72-1.185.29-.37.64-.7 1.05-.99.42-.29.875-.475 1.365-.555.49-.09 1.02-.065 1.59.075.23.06.455.165.675.315h.075c.29-.04.545.03.765.21.23.18.36.415.39.705Zm4.137 1.14c-.01.03-.025.085-.045.165 0 .03-.005.06-.015.09v.12a.283.283 0 0 0-.015.09v.045c0 .31.005.92.015 1.83.01.91.015 1.6.015 2.07 0 .29-.105.54-.315.75a1 1 0 0 1-.735.3c-.29 0-.54-.1-.75-.3-.2-.21-.3-.46-.3-.75 0-.42-.01-1.28-.03-2.58-.01-1.3-.05-2.37-.12-3.21-.01-.3.045-.52.165-.66.12-.15.33-.24.63-.27.52 0 .835.095.945.285.59-.37 1.26-.52 2.01-.45.62.06 1.185.265 1.695.615s.865.835 1.065 1.455c.11.34.185.77.225 1.29.05.52.07.96.06 1.32 0 .35-.015.82-.045 1.41l-.03.9a.97.97 0 0 1-.315.69c-.2.19-.435.28-.705.27a.97.97 0 0 1-.69-.315.937.937 0 0 1-.27-.705c0-.11.01-.44.03-.99.03-.55.045-.975.045-1.275.01-.3 0-.645-.03-1.035-.03-.4-.085-.72-.165-.96a.862.862 0 0 0-.36-.465 1.292 1.292 0 0 0-.675-.225c-.28-.03-.54.005-.78.105-.23.09-.4.22-.51.39Zm11.276 1.755c-.01-.47-.015-.99-.015-1.56-.01 0-.19-.125-.54-.375a.902.902 0 0 0-.255-.135c-.62-.2-1.135-.16-1.545.12-.38.27-.635.685-.765 1.245-.13.59-.075 1.1.165 1.53.24.43.615.69 1.125.78.31.06.545.055.705-.015.16-.07.355-.245.585-.525a.985.985 0 0 0 .135-.195l.135-.315c.06-.15.135-.31.225-.48a.188.188 0 0 1 .045-.075Zm2.025-6.03c.05 4.91.075 7.785.075 8.625 0 .29-.105.54-.315.75a1 1 0 0 1-.735.3c-.3 0-.555-.16-.765-.48-.19.15-.39.27-.6.36-.54.22-1.165.27-1.875.15a3.967 3.967 0 0 1-1.365-.495c-.39-.25-.7-.54-.93-.87-.23-.33-.42-.695-.57-1.095-.14-.4-.21-.8-.21-1.2.01-.4.045-.79.105-1.17.24-1.09.78-1.925 1.62-2.505.97-.67 2.09-.81 3.36-.42.04.02.085.04.135.06a71.97 71.97 0 0 0-.03-1.98 1 1 0 0 1 .3-.735c.2-.21.445-.315.735-.315a.95.95 0 0 1 .735.285c.21.2.32.445.33.735Zm3.597 2.58c.4-.22 1-.47 1.8-.75.26-.09.51-.075.75.045.25.11.42.295.51.555a.97.97 0 0 1-.045.765.91.91 0 0 1-.555.495c-.92.32-1.705.635-2.355.945-.04.32-.045.775-.015 1.365.01.63.02 1.52.03 2.67 0 .29-.105.54-.315.75a.976.976 0 0 1-.735.315c-.28 0-.525-.105-.735-.315a.96.96 0 0 1-.315-.72c-.01-.99-.015-1.77-.015-2.34a.999.999 0 0 1 0-.345c-.01-1.11-.015-2.115-.015-3.015 0-.39.1-.685.3-.885.21-.21.46-.315.75-.315.21 0 .4.06.57.18.18.11.31.31.39.6Zm6.852 1.2c-.17.05-.26.075-.27.075l-.15.06c-.28.23-.495.55-.645.96-.14.41-.18.835-.12 1.275.04.42.165.76.375 1.02.22.26.505.425.855.495.42.08.74.08.96 0 .19-.07.38-.26.57-.57.19-.32.31-.72.36-1.2.06-.49.03-.895-.09-1.215-.11-.32-.25-.515-.42-.585-.13-.06-.25-.1-.36-.12a3.001 3.001 0 0 0-.465-.075c-.2-.03-.4-.07-.6-.12Zm.435-1.98c.94.15 1.57.295 1.89.435.37.18.68.425.93.735.26.31.44.64.54.99.11.35.19.72.24 1.11.05.38.045.725-.015 1.035-.05.48-.16.94-.33 1.38-.17.44-.43.86-.78 1.26-.34.4-.745.68-1.215.84-.57.2-1.25.22-2.04.06-.87-.17-1.55-.56-2.04-1.17a4.113 4.113 0 0 1-.885-2.1 4.85 4.85 0 0 1 .24-2.19c.26-.73.68-1.34 1.26-1.83.24-.18.535-.325.885-.435.01 0 .115-.03.315-.09a.93.93 0 0 0 .18-.06.99.99 0 0 1 .825.03Zm7.131 1.05c-.06 1.87-.075 3.815-.045 5.835 0 .29-.1.54-.3.75a1 1 0 0 1-.735.3.997.997 0 0 1-.75-.285c-.2-.2-.305-.445-.315-.735-.03-2.12-.015-4.105.045-5.955.01-.29.12-.53.33-.72.22-.2.475-.295.765-.285.29.01.53.125.72.345.2.21.295.46.285.75Zm-.39-3.6c.21.2.315.445.315.735s-.105.54-.315.75a1 1 0 0 1-.735.3c-.29 0-.54-.1-.75-.3-.2-.21-.3-.46-.3-.75a1 1 0 0 1 .3-.735c.21-.21.46-.315.75-.315s.535.105.735.315Zm7.171 6.78c-.01-.47-.015-.99-.015-1.56-.01 0-.19-.125-.54-.375a.902.902 0 0 0-.255-.135c-.62-.2-1.135-.16-1.545.12-.38.27-.635.685-.765 1.245-.13.59-.075 1.1.165 1.53.24.43.615.69 1.125.78.31.06.545.055.705-.015.16-.07.355-.245.585-.525a.985.985 0 0 0 .135-.195l.135-.315c.06-.15.135-.31.225-.48a.188.188 0 0 1 .045-.075Zm2.025-6.03c.05 4.91.075 7.785.075 8.625 0 .29-.105.54-.315.75a1 1 0 0 1-.735.3c-.3 0-.555-.16-.765-.48-.19.15-.39.27-.6.36-.54.22-1.165.27-1.875.15a3.967 3.967 0 0 1-1.365-.495c-.39-.25-.7-.54-.93-.87-.23-.33-.42-.695-.57-1.095-.14-.4-.21-.8-.21-1.2.01-.4.045-.79.105-1.17.24-1.09.78-1.925 1.62-2.505.97-.67 2.09-.81 3.36-.42.04.02.085.04.135.06a71.97 71.97 0 0 0-.03-1.98 1 1 0 0 1 .3-.735c.2-.21.445-.315.735-.315a.95.95 0 0 1 .735.285c.21.2.32.445.33.735Zm11.259 6.345c-.03-.8-.07-1.49-.12-2.07l-.15-.105-.21-.165-.135-.09c-.41-.12-.825-.045-1.245.225-.41.27-.735.705-.975 1.305-.23.58-.295 1.05-.195 1.41.1.35.325.585.675.705.44.16.89.07 1.35-.27.08-.05.15-.105.21-.165l.24-.27.345-.36a.8.8 0 0 1 .21-.15Zm1.86-3.21a29.601 29.601 0 0 1 .18 2.235l.045 1.05.045 1.17c.02.53.035.875.045 1.035.01.29-.085.545-.285.765-.2.21-.44.32-.72.33-.23.01-.44-.045-.63-.165-.18-.13-.31-.3-.39-.51-1.04.72-2.105.885-3.195.495-.57-.2-1.03-.495-1.38-.885-.34-.4-.555-.835-.645-1.305a5.226 5.226 0 0 1-.045-1.425c.05-.49.165-.945.345-1.365.19-.42.43-.815.72-1.185.29-.37.64-.7 1.05-.99.42-.29.875-.475 1.365-.555.49-.09 1.02-.065 1.59.075.23.06.455.165.675.315h.075c.29-.04.545.03.765.21.23.18.36.415.39.705Zm3.474 3.465c.2.37.425.64.675.81.25.16.495.24.735.24.15.05.41-.015.78-.195.39-.2.65-.53.78-.99.13-.46.105-.965-.075-1.515-.22-.49-.5-.815-.84-.975-.35-.16-.69-.175-1.02-.045-.33.13-.675.47-1.035 1.02v1.65Zm-.165-4.29c1.08-.6 2.11-.68 3.09-.24.86.4 1.49 1.11 1.89 2.13.16.42.255.86.285 1.32.04.45.005.92-.105 1.41-.1.48-.31.935-.63 1.365-.32.43-.735.77-1.245 1.02-.86.43-1.63.545-2.31.345-.28-.08-.555-.21-.825-.39l-.03 2.445c-.01.29-.12.535-.33.735a.95.95 0 0 1-.735.285.976.976 0 0 1-.735-.315 1 1 0 0 1-.3-.735c.03-1.73.045-4.67.045-8.82a1 1 0 0 1 .3-.735c.21-.21.46-.315.75-.315.38 0 .675.165.885.495Zm8.969 4.29c.2.37.425.64.675.81.25.16.495.24.735.24.15.05.41-.015.78-.195.39-.2.65-.53.78-.99.13-.46.105-.965-.075-1.515-.22-.49-.5-.815-.84-.975-.35-.16-.69-.175-1.02-.045-.33.13-.675.47-1.035 1.02v1.65Zm-.165-4.29c1.08-.6 2.11-.68 3.09-.24.86.4 1.49 1.11 1.89 2.13.16.42.255.86.285 1.32.04.45.005.92-.105 1.41-.1.48-.31.935-.63 1.365-.32.43-.735.77-1.245 1.02-.86.43-1.63.545-2.31.345-.28-.08-.555-.21-.825-.39l-.03 2.445c-.01.29-.12.535-.33.735a.95.95 0 0 1-.735.285.976.976 0 0 1-.735-.315 1 1 0 0 1-.3-.735c.03-1.73.045-4.67.045-8.82a1 1 0 0 1 .3-.735c.21-.21.46-.315.75-.315.38 0 .675.165.885.495Zm11.534 2.1c-.13-.11-.245-.205-.345-.285-.1-.09-.175-.15-.225-.18l-.12-.12c-.11-.06-.31-.115-.6-.165-.12-.01-.275 0-.465.03s-.35.085-.48.165l-.09.06.03.06.015.015c.01.01.05.04.12.09.08.05.18.1.3.15.16.07.405.165.735.285.33.12.54.195.63.225.23.1.435.195.615.285.19.08.41.205.66.375.25.17.45.35.6.54.15.19.27.435.36.735.1.29.13.6.09.93-.05.34-.165.645-.345.915-.17.26-.38.47-.63.63a4.394 4.394 0 0 1-1.575.555c-.52.07-1.06.06-1.62-.03-.56-.1-1.025-.285-1.395-.555-.21-.16-.4-.385-.57-.675l-.12-.24a1.334 1.334 0 0 0-.075-.135.896.896 0 0 1-.15-.705c.06-.26.205-.46.435-.6.23-.15.48-.195.75-.135.28.05.495.185.645.405.06.09.12.19.18.3l.105.195c.03.04.05.075.06.105.12.08.32.145.6.195.28.05.57.05.87 0 .53-.08.805-.23.825-.45.02-.14-.035-.27-.165-.39-.13-.13-.43-.29-.9-.48-.07-.03-.29-.11-.66-.24-.37-.14-.635-.25-.795-.33-.72-.32-1.195-.71-1.425-1.17-.27-.54-.295-1.06-.075-1.56.17-.42.485-.75.945-.99.35-.18.73-.305 1.14-.375.4-.08.765-.095 1.095-.045.6.08 1.085.225 1.455.435a4 4 0 0 1 .27.225l.36.3c.13.11.215.185.255.225.21.17.325.39.345.66.02.26-.06.49-.24.69-.18.19-.41.295-.69.315-.27.02-.515-.06-.735-.24Zm4.457 3.525c.21.2.315.445.315.735s-.105.54-.315.75a1 1 0 0 1-.735.3c-.29 0-.54-.1-.75-.3-.2-.21-.3-.46-.3-.75a1 1 0 0 1 .3-.735c.21-.21.46-.315.75-.315s.535.105.735.315Z"/></svg>